<?xml version="1.0" encoding="UTF-8"?>
<svg width="24px" height="24px" viewBox="0 0 24 24" version="1.1" xmlns="http://www.w3.org/2000/svg" xmlns:xlink="http://www.w3.org/1999/xlink">
    <!-- Generator: Sketch 52.4 (67378) - http://www.bohemiancoding.com/sketch -->
    <title>Atoms/Icons/UI Icons/Link Out 1</title>
    <desc>Created with Sketch.</desc>
    <defs>
        <path d="M10.9587359,12.9312345 C10.8595631,12.9312345 10.7603904,12.7243379 10.7603904,12.6208897 C10.7603904,12.4139931 10.8595631,12.1034483 10.9587359,12 L16,7 L13,7 C13,7 13,6.0002 13,6.0002 L17.3057909,6.0002 L17.6033091,6.0002 C17.6033091,6.0002 17.7024818,6.0002 17.7024818,6.10364828 L17.8016545,6.20709655 L17.9008273,6.31054483 C17.9008273,6.4139931 18,6.51744138 18,6.62088966 L18,11 C18,11 17.6666667,11 17,11 L17,8 L12,13 C11.9008273,13.1044828 11.5537723,13.138131 11.3554268,13.138131 C11.1570813,13.138131 11.0579086,13.0336483 10.9587359,12.9312345 Z M17,17 L17,13 L18,13 L18,17 C18,17.7241379 17.6942091,18.0002 17,18.0002 L7,18.0002 C6.30579086,18.0002 6,17.6206897 6,17 L6,7 C6,6.27586207 6.30579086,6.0002 7,6.0002 L11,6.0002 L11,7 L7,7 L7,17 L17,17 Z" id="path-1"></path>
    </defs>
    <g id="Atoms/Icons/UI-Icons/Link-Out-1" stroke="none" stroke-width="1" fill="none" fill-rule="evenodd">
        <mask id="mask-2" fill="white">
            <use xlink:href="#path-1"></use>
        </mask>
        <use id="Link-Out" fill="#FFFFFF" xlink:href="#path-1"></use>
    </g>
</svg>