<?xml version="1.0" encoding="UTF-8"?>
<svg width="60px" height="60px" viewBox="0 0 60 60" version="1.1" xmlns="http://www.w3.org/2000/svg" xmlns:xlink="http://www.w3.org/1999/xlink">
    <!-- Generator: Sketch 52.4 (67378) - http://www.bohemiancoding.com/sketch -->
    <title>Atoms/Buttons/Icon Buttons/Back Arrow Hover</title>
    <desc>Created with Sketch.</desc>
    <defs>
        <polygon id="path-1" points="0 0 59.9996 0 59.9996 59.9998 0 59.9998"></polygon>
    </defs>
    <g id="Atoms/Buttons/Icon-Buttons/Back-Arrow-Hover" stroke="none" stroke-width="1" fill="none" fill-rule="evenodd">
        <g id="hover">
            <g id="Group-3">
                <mask id="mask-2" fill="white">
                    <use xlink:href="#path-1"></use>
                </mask>
                <g id="Clip-2"></g>
                <path d="M54.5996,12.7998 C58.2006,17.7998 59.9996,23.4998 59.9996,29.9998 C59.9996,38.2998 57.0996,45.4008 51.2006,51.1998 C45.2996,57.0998 38.2996,59.9998 29.9996,59.9998 C21.7006,59.9998 14.5996,57.0998 8.7996,51.1998 C8.5996,50.9998 8.3996,50.7998 8.2006,50.4998 C2.7006,44.7998 -0.0004,37.9998 -0.0004,29.9998 C-0.0004,21.6998 2.8996,14.6998 8.7996,8.7998 C14.5996,2.8998 21.7006,-0.0002 29.9996,-0.0002 C38.2996,-0.0002 45.2996,2.8998 51.2006,8.7998 C52.4996,10.0998 53.5996,11.3998 54.5996,12.7998" id="Fill-1" fill="#196ECF" mask="url(#mask-2)"></path>
            </g>
            <path d="M58,30 C58,37.8 55.3,44.4 49.8,49.8 C44.3,55.3 37.7,58 30,58 C22.3,58 15.7,55.3 10.2,49.8 C10,49.6 9.7,49.4 9.6,49.2 C4.5,43.9 2,37.5 2,30 C2,22.3 4.8,15.7 10.2,10.2 C15.7,4.8 22.3,2 30,2 C37.7,2 44.3,4.8 49.8,10.2 C51,11.4 52.1,12.6 53,13.9 C56.3,18.6 58,23.9 58,30" id="Fill-4" fill="#F2F2F2"></path>
            <path d="M35.4004,17.2998 C35.4004,17.5998 35.2994,17.7998 35.0994,17.9998 L23.1004,29.9998 L35.0994,41.9998 C35.2994,42.1998 35.4004,42.4008 35.4004,42.6998 C35.4004,42.9998 35.2994,43.1998 35.0994,43.4008 C34.9004,43.5998 34.7004,43.6998 34.4004,43.6998 C34.0994,43.6998 33.9004,43.5998 33.7004,43.4008 L20.7004,30.4008 C20.6004,29.9998 20.7004,29.5998 21.0004,29.2998 L33.7004,16.5998 C33.9004,16.3998 34.0994,16.2998 34.4004,16.2998 C34.7004,16.2998 34.9004,16.3998 35.2004,16.4998 C35.2994,16.6998 35.4004,16.9998 35.4004,17.2998" id="Fill-6" fill="#196ECF"></path>
        </g>
    </g>
</svg>