<?xml version="1.0" encoding="UTF-8"?>
<svg width="60px" height="60px" viewBox="0 0 60 60" version="1.1" xmlns="http://www.w3.org/2000/svg" xmlns:xlink="http://www.w3.org/1999/xlink">
    <!-- Generator: Sketch 52.4 (67378) - http://www.bohemiancoding.com/sketch -->
    <title>Atoms/Buttons/Icon Buttons/Close Static</title>
    <desc>Created with Sketch.</desc>
    <defs>
        <polygon id="path-1" points="0 0 59.9996 0 59.9996 59.9998 0 59.9998"></polygon>
    </defs>
    <g id="Atoms/Buttons/Icon-Buttons/Close-Static" stroke="none" stroke-width="1" fill="none" fill-rule="evenodd">
        <g id="static">
            <g id="Group-3">
                <mask id="mask-2" fill="white">
                    <use xlink:href="#path-1"></use>
                </mask>
                <g id="Clip-2"></g>
                <path d="M54.5996,12.7998 C58.2006,17.7998 59.9996,23.4998 59.9996,29.9998 C59.9996,38.2998 57.0996,45.4008 51.2006,51.1998 C45.2996,57.0998 38.2996,59.9998 29.9996,59.9998 C21.7006,59.9998 14.5996,57.0998 8.7996,51.1998 C8.5996,50.9998 8.3996,50.7998 8.2006,50.4998 C2.7006,44.7998 -0.0004,37.9998 -0.0004,29.9998 C-0.0004,21.6998 2.8996,14.6998 8.7996,8.7998 C14.5996,2.8998 21.7006,-0.0002 29.9996,-0.0002 C38.2996,-0.0002 45.2996,2.8998 51.2006,8.7998 C52.4996,10.0998 53.5996,11.3998 54.5996,12.7998" id="Fill-1" fill="#196ECF" mask="url(#mask-2)"></path>
            </g>
            <path d="M58,30 C58,37.8 55.3,44.4 49.8,49.8 C44.3,55.3 37.7,58 30,58 C22.3,58 15.7,55.3 10.2,49.8 C10,49.6 9.7,49.4 9.6,49.2 C4.5,43.9 2,37.5 2,30 C2,22.3 4.8,15.7 10.2,10.2 C15.7,4.8 22.3,2 30,2 C37.7,2 44.3,4.8 49.8,10.2 C51,11.4 52.1,12.6 53,13.9 C56.3,18.6 58,23.9 58,30" id="Fill-4" fill="#FFFFFF"></path>
            <path d="M44.2002,15.8999 C44.4002,16.0999 44.5002,16.2999 44.5002,16.5999 C44.5002,16.8999 44.4002,17.0999 44.2002,17.2999 L31.4002,29.9999 L44.0992,42.6999 C44.3002,42.8999 44.4002,43.0999 44.4002,43.3999 C44.4002,43.6999 44.3002,43.8999 44.0992,44.0999 C43.9002,44.2999 43.7002,44.3999 43.4002,44.3999 C43.0992,44.3999 42.9002,44.2999 42.7002,44.0999 L30.0002,31.4999 L17.2002,44.1999 C17.0002,44.3999 16.8002,44.3999 16.6002,44.3999 C16.3002,44.3999 16.0002,44.2999 15.8002,44.1999 C15.6002,43.9999 15.5002,43.6999 15.6002,43.3999 C15.6002,43.0999 15.7002,42.8999 15.8002,42.6999 L28.6002,29.9999 L15.9002,17.2999 C15.7002,17.0999 15.6002,16.8999 15.6002,16.5999 C15.6002,16.2999 15.7002,16.0999 15.9002,15.8999 C16.1002,15.6999 16.3002,15.5999 16.6002,15.5999 C16.9002,15.5999 17.1002,15.6999 17.3002,15.8999 L30.0002,28.5999 L42.8002,15.7999 C43.0002,15.5999 43.2002,15.4999 43.5002,15.4999 C43.7002,15.5999 44.0002,15.6999 44.2002,15.8999" id="Fill-6" fill="#0D6BD2"></path>
        </g>
    </g>
</svg>